<svg id="visual" viewBox="0 0 900 600" width="900" height="600" xmlns="http://www.w3.org/2000/svg" xmlns:xlink="http://www.w3.org/1999/xlink" version="1.1"><g stroke-width="1" stroke-linejoin="bevel"><path d="M405 281L493 276L491 214Z" fill="#246688" stroke="#246688"></path><path d="M491 214L389 170L405 281Z" fill="#297ea6" stroke="#297ea6"></path><path d="M493 276L569 204L491 214Z" fill="#205a7a" stroke="#205a7a"></path><path d="M491 214L418 95L389 170Z" fill="#15384f" stroke="#15384f"></path><path d="M297 163L323 325L405 281Z" fill="#0c2435" stroke="#0c2435"></path><path d="M405 281L504 434L493 276Z" fill="#277297" stroke="#277297"></path><path d="M569 204L521 117L491 214Z" fill="#00101c" stroke="#00101c"></path><path d="M521 117L418 95L491 214Z" fill="#205a7a" stroke="#205a7a"></path><path d="M389 170L297 163L405 281Z" fill="#246688" stroke="#246688"></path><path d="M318 124L297 163L389 170Z" fill="#205a7a" stroke="#205a7a"></path><path d="M323 325L362 402L405 281Z" fill="#0c2435" stroke="#0c2435"></path><path d="M493 276L636 281L569 204Z" fill="#1d4e6b" stroke="#1d4e6b"></path><path d="M418 95L318 124L389 170Z" fill="#205a7a" stroke="#205a7a"></path><path d="M586 403L636 281L493 276Z" fill="#081a28" stroke="#081a28"></path><path d="M569 204L638 139L521 117Z" fill="#297ea6" stroke="#297ea6"></path><path d="M362 402L504 434L405 281Z" fill="#15384f" stroke="#15384f"></path><path d="M504 434L586 403L493 276Z" fill="#246688" stroke="#246688"></path><path d="M636 281L638 139L569 204Z" fill="#0c2435" stroke="#0c2435"></path><path d="M517 0L399 0L418 95Z" fill="#19435d" stroke="#19435d"></path><path d="M179 296L272 379L323 325Z" fill="#246688" stroke="#246688"></path><path d="M323 325L272 379L362 402Z" fill="#1d4e6b" stroke="#1d4e6b"></path><path d="M517 0L418 95L521 117Z" fill="#1d4e6b" stroke="#1d4e6b"></path><path d="M418 95L334 0L318 124Z" fill="#00101c" stroke="#00101c"></path><path d="M617 0L517 0L521 117Z" fill="#00101c" stroke="#00101c"></path><path d="M180 61L196 182L297 163Z" fill="#0c2435" stroke="#0c2435"></path><path d="M297 163L179 296L323 325Z" fill="#277297" stroke="#277297"></path><path d="M180 61L297 163L318 124Z" fill="#246688" stroke="#246688"></path><path d="M705 332L713 213L636 281Z" fill="#15384f" stroke="#15384f"></path><path d="M636 281L713 213L638 139Z" fill="#246688" stroke="#246688"></path><path d="M638 139L617 0L521 117Z" fill="#112e42" stroke="#112e42"></path><path d="M504 434L595 473L586 403Z" fill="#246688" stroke="#246688"></path><path d="M586 403L705 332L636 281Z" fill="#112e42" stroke="#112e42"></path><path d="M530 533L595 473L504 434Z" fill="#112e42" stroke="#112e42"></path><path d="M383 523L504 434L362 402Z" fill="#081a28" stroke="#081a28"></path><path d="M399 0L334 0L418 95Z" fill="#00101c" stroke="#00101c"></path><path d="M698 390L705 332L586 403Z" fill="#081a28" stroke="#081a28"></path><path d="M196 182L179 296L297 163Z" fill="#0c2435" stroke="#0c2435"></path><path d="M178 539L316 492L272 379Z" fill="#1d4e6b" stroke="#1d4e6b"></path><path d="M272 379L316 492L362 402Z" fill="#081a28" stroke="#081a28"></path><path d="M316 492L383 523L362 402Z" fill="#205a7a" stroke="#205a7a"></path><path d="M672 485L698 390L586 403Z" fill="#205a7a" stroke="#205a7a"></path><path d="M713 213L706 117L638 139Z" fill="#297ea6" stroke="#297ea6"></path><path d="M383 523L530 533L504 434Z" fill="#19435d" stroke="#19435d"></path><path d="M595 473L672 485L586 403Z" fill="#205a7a" stroke="#205a7a"></path><path d="M706 117L617 0L638 139Z" fill="#1d4e6b" stroke="#1d4e6b"></path><path d="M93 260L160 386L179 296Z" fill="#297ea6" stroke="#297ea6"></path><path d="M179 296L160 386L272 379Z" fill="#112e42" stroke="#112e42"></path><path d="M207 0L180 61L318 124Z" fill="#112e42" stroke="#112e42"></path><path d="M196 182L93 260L179 296Z" fill="#0c2435" stroke="#0c2435"></path><path d="M582 600L672 485L595 473Z" fill="#15384f" stroke="#15384f"></path><path d="M334 0L207 0L318 124Z" fill="#112e42" stroke="#112e42"></path><path d="M705 332L791 261L713 213Z" fill="#15384f" stroke="#15384f"></path><path d="M713 213L772 95L706 117Z" fill="#205a7a" stroke="#205a7a"></path><path d="M774 394L791 261L705 332Z" fill="#081a28" stroke="#081a28"></path><path d="M774 394L705 332L698 390Z" fill="#246688" stroke="#246688"></path><path d="M383 523L465 600L530 533Z" fill="#00101c" stroke="#00101c"></path><path d="M530 533L582 600L595 473Z" fill="#297ea6" stroke="#297ea6"></path><path d="M363 600L465 600L383 523Z" fill="#19435d" stroke="#19435d"></path><path d="M363 600L383 523L316 492Z" fill="#205a7a" stroke="#205a7a"></path><path d="M80 200L93 260L196 182Z" fill="#112e42" stroke="#112e42"></path><path d="M93 260L132 417L160 386Z" fill="#00101c" stroke="#00101c"></path><path d="M160 386L178 539L272 379Z" fill="#297ea6" stroke="#297ea6"></path><path d="M814 232L772 95L713 213Z" fill="#112e42" stroke="#112e42"></path><path d="M706 117L714 0L617 0Z" fill="#112e42" stroke="#112e42"></path><path d="M672 485L774 394L698 390Z" fill="#19435d" stroke="#19435d"></path><path d="M772 95L714 0L706 117Z" fill="#19435d" stroke="#19435d"></path><path d="M269 600L363 600L316 492Z" fill="#205a7a" stroke="#205a7a"></path><path d="M900 221L814 232L900 311Z" fill="#15384f" stroke="#15384f"></path><path d="M791 261L814 232L713 213Z" fill="#00101c" stroke="#00101c"></path><path d="M64 136L196 182L180 61Z" fill="#19435d" stroke="#19435d"></path><path d="M64 136L80 200L196 182Z" fill="#081a28" stroke="#081a28"></path><path d="M465 600L582 600L530 533Z" fill="#1d4e6b" stroke="#1d4e6b"></path><path d="M672 485L821 465L774 394Z" fill="#297ea6" stroke="#297ea6"></path><path d="M178 539L269 600L316 492Z" fill="#15384f" stroke="#15384f"></path><path d="M132 417L178 539L160 386Z" fill="#297ea6" stroke="#297ea6"></path><path d="M80 0L64 136L180 61Z" fill="#0c2435" stroke="#0c2435"></path><path d="M0 400L132 417L93 260Z" fill="#00101c" stroke="#00101c"></path><path d="M804 600L821 465L672 485Z" fill="#19435d" stroke="#19435d"></path><path d="M900 311L814 232L791 261Z" fill="#0c2435" stroke="#0c2435"></path><path d="M582 600L700 600L672 485Z" fill="#112e42" stroke="#112e42"></path><path d="M0 465L96 511L132 417Z" fill="#277297" stroke="#277297"></path><path d="M132 417L96 511L178 539Z" fill="#00101c" stroke="#00101c"></path><path d="M178 539L169 600L269 600Z" fill="#277297" stroke="#277297"></path><path d="M0 264L93 260L80 200Z" fill="#246688" stroke="#246688"></path><path d="M207 0L80 0L180 61Z" fill="#246688" stroke="#246688"></path><path d="M900 123L815 0L772 95Z" fill="#15384f" stroke="#15384f"></path><path d="M772 95L815 0L714 0Z" fill="#19435d" stroke="#19435d"></path><path d="M900 123L772 95L814 232Z" fill="#205a7a" stroke="#205a7a"></path><path d="M0 175L0 264L80 200Z" fill="#246688" stroke="#246688"></path><path d="M0 175L80 200L64 136Z" fill="#081a28" stroke="#081a28"></path><path d="M87 600L169 600L178 539Z" fill="#246688" stroke="#246688"></path><path d="M0 121L0 175L64 136Z" fill="#081a28" stroke="#081a28"></path><path d="M900 311L791 261L774 394Z" fill="#277297" stroke="#277297"></path><path d="M900 377L900 311L774 394Z" fill="#1d4e6b" stroke="#1d4e6b"></path><path d="M80 0L0 121L64 136Z" fill="#205a7a" stroke="#205a7a"></path><path d="M900 221L900 123L814 232Z" fill="#0c2435" stroke="#0c2435"></path><path d="M900 474L900 377L821 465Z" fill="#0c2435" stroke="#0c2435"></path><path d="M821 465L900 377L774 394Z" fill="#205a7a" stroke="#205a7a"></path><path d="M0 264L0 400L93 260Z" fill="#297ea6" stroke="#297ea6"></path><path d="M96 511L87 600L178 539Z" fill="#277297" stroke="#277297"></path><path d="M0 400L0 465L132 417Z" fill="#1d4e6b" stroke="#1d4e6b"></path><path d="M700 600L804 600L672 485Z" fill="#0c2435" stroke="#0c2435"></path><path d="M0 600L87 600L96 511Z" fill="#0c2435" stroke="#0c2435"></path><path d="M900 600L900 474L821 465Z" fill="#297ea6" stroke="#297ea6"></path><path d="M80 0L0 0L0 121Z" fill="#297ea6" stroke="#297ea6"></path><path d="M900 123L900 0L815 0Z" fill="#00101c" stroke="#00101c"></path><path d="M0 465L0 600L96 511Z" fill="#277297" stroke="#277297"></path><path d="M804 600L900 600L821 465Z" fill="#15384f" stroke="#15384f"></path></g></svg>